<?xml version="1.0" standalone="no"?>
<!DOCTYPE svg PUBLIC "-//W3C//DTD SVG 20010904//EN"
 "http://www.w3.org/TR/2001/REC-SVG-20010904/DTD/svg10.dtd">
<svg version="1.0" xmlns="http://www.w3.org/2000/svg"
 width="512.000000pt" height="512.000000pt" viewBox="0 0 512.000000 512.000000"
 preserveAspectRatio="xMidYMid meet">

<g transform="translate(0.000000,512.000000) scale(0.100000,-0.100000)"
fill="#000000" stroke="none">
<path d="M2745 5111 c-143 -38 -164 -65 -578 -713 -511 -800 -972 -1611 -1391
-2443 -354 -704 -685 -1442 -709 -1581 -20 -116 39 -249 140 -316 55 -37 154
-62 218 -54 69 8 167 58 209 107 35 41 48 70 182 384 287 677 764 1623 1217
2415 139 243 407 690 413 690 3 0 78 -43 165 -96 105 -63 157 -99 152 -107 -4
-7 -35 -51 -70 -98 -68 -93 -93 -150 -93 -209 0 -130 113 -245 240 -244 113 0
157 30 268 179 41 55 76 101 77 103 8 8 526 -392 613 -473 2 -2 -75 -110 -171
-241 -96 -132 -182 -256 -191 -278 -23 -56 -20 -131 8 -191 71 -151 257 -192
380 -84 23 20 109 129 191 242 l150 206 86 -92 c251 -269 454 -543 579 -782
29 -55 60 -106 68 -112 20 -16 82 -16 103 0 31 23 38 55 50 220 46 608 -164
1250 -604 1847 -240 325 -596 687 -947 960 -110 86 -302 227 -369 270 l-23 15
17 53 c24 74 17 180 -18 247 -30 61 -102 130 -162 156 -50 22 -154 32 -200 20z
m107 -181 c40 -11 94 -66 104 -105 13 -53 -9 -98 -183 -362 -96 -147 -236
-365 -310 -483 -74 -118 -141 -221 -148 -229 -11 -11 -32 0 -126 65 -63 43
-116 79 -118 80 -11 9 607 963 649 1002 20 18 58 36 90 41 3 1 22 -4 42 -9z
m220 -487 c29 -20 108 -77 175 -127 l122 -90 -22 -30 c-26 -35 -288 -392 -385
-525 -35 -47 -69 -92 -76 -99 -10 -11 -42 5 -174 84 -89 53 -162 101 -162 106
0 22 447 718 461 718 5 0 33 -17 61 -37z m545 -838 c26 -19 37 -59 22 -87 -6
-12 -31 -47 -54 -79 -91 -124 -81 -261 27 -353 110 -95 256 -79 361 39 55 62
91 71 128 34 33 -33 19 -67 -94 -218 l-104 -138 -138 114 c-76 63 -209 166
-294 230 -86 63 -160 119 -165 124 -5 4 19 46 56 96 35 48 88 121 117 161 70
95 93 108 138 77z m1094 -1045 c82 -209 141 -460 154 -660 3 -47 8 -107 11
-135 l5 -50 -58 85 c-121 176 -287 382 -443 545 -42 44 -81 87 -88 97 -11 14
-1 33 70 131 46 62 112 154 147 203 l65 89 47 -100 c27 -55 67 -147 90 -205z"/>
</g>
</svg>
